<svg xmlns="http://www.w3.org/2000/svg" width="177" height="143" viewBox="0 0 177 143">
  <metadata><?xpacket begin="﻿" id="W5M0MpCehiHzreSzNTczkc9d"?>
<x:xmpmeta xmlns:x="adobe:ns:meta/" x:xmptk="Adobe XMP Core 5.6-c138 79.159824, 2016/09/14-01:09:01        ">
   <rdf:RDF xmlns:rdf="http://www.w3.org/1999/02/22-rdf-syntax-ns#">
      <rdf:Description rdf:about=""/>
   </rdf:RDF>
</x:xmpmeta>
                                                                                                    
                                                                                                    
                                                                                                    
                                                                                                    
                                                                                                    
                                                                                                    
                                                                                                    
                                                                                                    
                                                                                                    
                                                                                                    
                                                                                                    
                                                                                                    
                                                                                                    
                                                                                                    
                                                                                                    
                                                                                                    
                                                                                                    
                                                                                                    
                                                                                                    
                                                                                                    
                           
<?xpacket end="w"?></metadata>
<defs>
    <style>
      .cls-1 {
        fill: #059feb;
        fill-rule: evenodd;
      }
    </style>
  </defs>
  <path id="Forma_1" data-name="Forma 1" class="cls-1" d="M167.962,104H9.039A9.069,9.069,0,0,1,0,94.925V9.078A9.069,9.069,0,0,1,9.039,0H167.962A9.07,9.07,0,0,1,177,9.078V94.925A9.07,9.07,0,0,1,167.962,104ZM9.039,7.333A1.745,1.745,0,0,0,7.3,9.078V94.925a1.745,1.745,0,0,0,1.74,1.746H167.962a1.744,1.744,0,0,0,1.738-1.746V9.078a1.743,1.743,0,0,0-1.738-1.745H9.039ZM69.6,79.867a3.732,3.732,0,0,1-1.978-3.257V27.394a3.649,3.649,0,0,1,5.766-2.988l34.446,24.607a3.678,3.678,0,0,1,0,5.977S82,73.445,73.392,79.6A3.329,3.329,0,0,1,69.6,79.867ZM74.927,34.5v35L99.424,52Zm98.423,90.316H103.587a14.431,14.431,0,0,0-27.958,0H3.65a3.667,3.667,0,0,0,0,7.333H75.629a14.431,14.431,0,0,0,27.959,0H173.35A3.667,3.667,0,0,0,173.35,124.818ZM89.607,135.665a7.181,7.181,0,1,1,7.149-7.181A7.173,7.173,0,0,1,89.607,135.665Z"/>
</svg>
