<svg xmlns="http://www.w3.org/2000/svg" xmlns:xlink="http://www.w3.org/1999/xlink" preserveAspectRatio="xMidYMid" width="32" height="32" viewBox="0 0 32 32">
  <defs>
    <style>
      .cls-1 {
        fill: #0023ff;
        fill-rule: evenodd;
      }
    </style>
  </defs>
  <path d="M16.000,32.000 C7.163,32.000 -0.000,24.837 -0.000,16.000 C-0.000,7.163 7.163,-0.000 16.000,-0.000 C24.837,-0.000 32.000,7.163 32.000,16.000 C32.000,24.837 24.837,32.000 16.000,32.000 ZM16.000,3.000 C8.832,3.000 3.000,8.832 3.000,16.000 C3.000,23.168 8.832,29.000 16.000,29.000 C23.168,29.000 29.000,23.168 29.000,16.000 C29.000,8.832 23.168,3.000 16.000,3.000 ZM21.000,18.000 L18.000,18.000 L18.000,21.000 C18.000,22.104 17.104,23.000 16.000,23.000 C14.895,23.000 14.000,22.104 14.000,21.000 L14.000,18.000 L11.000,18.000 C9.895,18.000 9.000,17.104 9.000,16.000 C9.000,14.895 9.895,14.000 11.000,14.000 L14.000,14.000 L14.000,11.000 C14.000,9.895 14.895,9.000 16.000,9.000 C17.104,9.000 18.000,9.895 18.000,11.000 L18.000,14.000 L21.000,14.000 C22.104,14.000 23.000,14.895 23.000,16.000 C23.000,17.104 22.104,18.000 21.000,18.000 Z" class="cls-1"/>
</svg>
