<svg xmlns="http://www.w3.org/2000/svg" xmlns:xlink="http://www.w3.org/1999/xlink" preserveAspectRatio="xMidYMid" width="20" height="21" viewBox="0 0 20 21">
  <defs>
    <style>
      .cls-1 {
        fill: #fff;
        fill-rule: evenodd;
      }
    </style>
  </defs>
  <path d="M13.336,18.754 C12.307,19.205 11.187,19.465 10.002,19.465 C7.931,19.465 6.043,18.686 4.558,17.415 C4.558,17.415 4.675,17.497 4.754,17.565 C6.394,13.821 11.461,11.963 11.461,11.963 C11.474,11.963 11.500,11.949 11.513,11.949 C12.711,15.229 13.206,17.962 13.336,18.754 ZM10.927,10.460 C10.822,10.501 10.705,10.528 10.588,10.569 C10.588,10.569 5.978,12.127 3.647,16.486 L3.647,16.486 C2.292,14.901 1.459,12.797 1.459,10.501 C1.459,10.405 1.459,10.310 1.472,10.214 C1.615,10.214 5.834,10.323 10.236,8.943 C10.484,9.449 10.718,9.954 10.927,10.460 ZM9.533,7.563 C5.431,8.697 1.862,8.656 1.641,8.656 C2.201,5.883 3.972,3.573 6.355,2.398 C6.473,2.562 8.048,4.803 9.533,7.563 ZM18.441,11.922 C18.050,14.422 16.696,16.582 14.781,17.934 C14.690,17.401 14.234,14.764 13.114,11.526 C15.875,11.075 18.259,11.867 18.441,11.922 ZM7.957,1.797 C7.944,1.797 7.931,1.811 7.931,1.811 C7.944,1.797 7.944,1.797 7.957,1.797 ZM15.641,3.778 C15.615,3.819 14.404,5.760 11.187,7.017 C9.728,4.202 8.113,1.975 7.983,1.797 C8.634,1.633 9.312,1.537 10.002,1.537 C12.164,1.537 14.143,2.385 15.641,3.778 ZM18.545,10.405 C18.441,10.392 15.537,9.722 12.594,10.118 C12.528,9.968 12.476,9.804 12.411,9.654 C12.229,9.217 12.034,8.779 11.838,8.356 C15.211,6.907 16.579,4.830 16.605,4.803 C17.803,6.333 18.519,8.287 18.545,10.405 ZM20.004,10.501 C20.004,4.708 15.524,0.007 10.002,0.007 C4.480,0.007 0.000,4.708 0.000,10.501 C0.000,16.295 4.480,20.995 10.002,20.995 C15.524,20.995 20.004,16.295 20.004,10.501 Z" class="cls-1"/>
</svg>
