<svg xmlns="http://www.w3.org/2000/svg" xmlns:xlink="http://www.w3.org/1999/xlink" preserveAspectRatio="xMidYMid" width="23" height="20" viewBox="0 0 23 20">
  <defs>
    <style>
      .cls-1 {
        fill: #fff;
        fill-rule: evenodd;
      }
    </style>
  </defs>
  <path d="M23.004,2.377 C22.157,2.768 21.237,3.049 20.288,3.158 C21.267,2.533 22.011,1.549 22.362,0.377 C21.456,0.955 20.434,1.377 19.369,1.596 C18.507,0.612 17.281,0.002 15.923,0.002 C13.310,0.002 11.207,2.268 11.207,5.049 C11.207,5.439 11.251,5.830 11.324,6.205 C7.412,5.986 3.922,3.986 1.601,0.924 C1.192,1.674 0.959,2.533 0.959,3.471 C0.959,5.221 1.791,6.767 3.061,7.673 C2.287,7.642 1.557,7.408 0.929,7.033 C0.929,7.048 0.929,7.080 0.929,7.095 C0.929,9.548 2.550,11.579 4.711,12.048 C4.316,12.157 3.893,12.220 3.470,12.220 C3.163,12.220 2.871,12.188 2.579,12.142 C3.178,14.141 4.915,15.594 6.988,15.641 C5.368,17.000 3.338,17.797 1.134,17.797 C0.740,17.797 0.375,17.782 -0.005,17.735 C2.083,19.172 4.565,20.000 7.236,20.000 C15.909,20.000 20.653,12.313 20.653,5.642 C20.653,5.423 20.653,5.205 20.639,4.986 C21.559,4.267 22.362,3.377 23.004,2.377 Z" class="cls-1"/>
</svg>
