<?xml version="1.0" encoding="utf-8"?>
<svg xmlns="http://www.w3.org/2000/svg"
	xmlns:xlink="http://www.w3.org/1999/xlink"
	width="66px" height="66px" viewBox="0 0 66 66">
<style type="text/css"><![CDATA[
.style0 {
  font-size: 36px;
  font-family: "BlissPro-Medium";
  fill: rgb(51,51,51);
}
]]></style>
<path fillRule="evenodd" d="M 33 65C 50.64 65 65 50.64 65 33 65 15.36 50.64 1 33 1 15.36 1 1 15.36 1 33 1 50.64 15.36 65 33 65M 33 66C 14.77 66-0 51.23-0 33-0 14.77 14.77 0 33 0 51.23 0 66 14.77 66 33 66 51.23 51.23 66 33 66 33 66 33 66 33 66Z" fill="rgb(51,51,51)" opacity="0.70"/><text transform="translate(26.00,42.00)" class="style0"><tspan x="0.00" fill="rgb(50,50,50)">-</tspan></text></svg>