<?xml version="1.0" encoding="utf-8"?>
<!-- Generator: Adobe Illustrator 21.0.0, SVG Export Plug-In . SVG Version: 6.00 Build 0)  -->
<svg version="1.1" id="Слой_1" xmlns="http://www.w3.org/2000/svg" xmlns:xlink="http://www.w3.org/1999/xlink" x="0px" y="0px"
	 viewBox="0 0 41.3 41.4" style="enable-background:new 0 0 41.3 41.4;" xml:space="preserve">
<style type="text/css">
	.st0{fill:#0023FF;}
	.st1{fill:none;}
</style>
<g>
	<path class="st0" d="M23.1,0.8C14-0.8,4.4,5.4,1.3,14.7C1.2,15,1.1,15.2,1,15.4c0,0.3-0.1,0.6-0.1,0.9c0,0.3-0.1,0.7-0.2,1
		c0,0.3-0.1,0.5-0.1,0.8c0,0.5-0.1,1-0.2,1.4c0,0.7,0,1.5,0,2.2c0.1,1.5,0.1,1.8,0.5,3.2c0.1,0.3,0.1,0.6,0.2,0.9
		c0.1,0.3,0.2,0.5,0.3,0.8C4.4,36.1,14,42.2,23.1,40.6c10.4-1.8,17.6-10.1,17.5-20.1C40.4,10.5,33.4,2.6,23.1,0.8z M20.2,30.7
		c-5.4-0.1-9.8-4.5-9.8-10c0-5.6,4.6-10.1,10.2-10c5.4,0.1,9.7,4.5,9.7,10C30.5,26.3,25.9,30.8,20.2,30.7z"/>
</g>
<path class="st1" d="M-4-4.9V8.7c0.2,0,0.3,0,0.5,0c1.2,0,2.2,0.3,2.9,0.9c0.4,0.2,0.8,0.6,1.2,1c1.6-0.7,3.6-0.6,5.3,0.8
	C4,9.8,7.3,10.9,8.6,11.1c2,0.3,3.6,0.7,5.5,1.4c3.5,1.3,6.9,2.5,10.5,3.3c6.3,1.4,3.6,11.1-2.7,9.6c-3.9-0.9-7.5-2.4-11.3-3.6
	c1.7,3,0.3,7.7-4.1,7.7c-3.4,0-5-2.7-4.8-5.3c-0.2,0-0.4,0-0.6,0c0.1,0.8,0.2,1.5,0.4,2.2c0,0,0,0,0,0c0.2,0.5,0.3,0.9,0.3,1.4
	c0,0.1,0,0.2,0.1,0.3c0.9,4-2.7,6.5-5.8,6.2v8.9h48.3V-4.9H-4z"/>
<circle class="st1" cx="39.1" cy="38.4" r="2.2"/>
<ellipse transform="matrix(0.9432 -0.3324 0.3324 0.9432 -10.4362 15.0476)" class="st0" cx="38.8" cy="38" rx="2.5" ry="2.5"/>
</svg>
