<?xml version="1.0" encoding="utf-8"?>
<svg xmlns="http://www.w3.org/2000/svg"
	xmlns:xlink="http://www.w3.org/1999/xlink"
	width="6px" height="11px" viewBox="0 0 6 11">
<path fillRule="evenodd" d="M 5.78 6.02C 5.78 6.02 1.23 10.75 1.23 10.75 0.94 11.05 0.47 11.05 0.18 10.75-0.11 10.45-0.11 9.96 0.18 9.66 0.18 9.66 4.21 5.47 4.21 5.47 4.21 5.47 0.18 1.28 0.18 1.28-0.11 0.98-0.11 0.49 0.18 0.19 0.47-0.11 0.94-0.11 1.23 0.19 1.23 0.19 5.78 4.93 5.78 4.93 5.93 5.08 6 5.27 6 5.47 6 5.67 5.93 5.87 5.78 6.02Z" fill="rgb(255,255,255)"/></svg>